<svg width="36" height="37" viewBox="0 0 36 37" fill="none" xmlns="http://www.w3.org/2000/svg">
<path d="M0 3.5C0 1.84315 1.34315 0.5 3 0.5H33C34.6569 0.5 36 1.84315 36 3.5V33.5C36 35.1569 34.6569 36.5 33 36.5H3C1.34315 36.5 0 35.1569 0 33.5V3.5Z" fill="#C25B33"/>
<path d="M12 28.043V8H17.332C19.319 8 20.6178 8.0957 21.2285 8.28711C22.2038 8.59701 23.0059 9.25781 23.6348 10.2695C24.2728 11.2812 24.5918 12.5846 24.5918 14.1797C24.5918 15.6289 24.3184 16.8457 23.7715 17.8301C23.2246 18.8053 22.541 19.4935 21.7207 19.8945C20.9004 20.2865 19.4876 20.4824 17.4824 20.4824H15.3086V28.043H12ZM15.3086 11.3906V17.0781H17.1406C18.3711 17.0781 19.2051 16.9915 19.6426 16.8184C20.0892 16.6452 20.4538 16.3353 20.7363 15.8887C21.0189 15.4329 21.1602 14.877 21.1602 14.2207C21.1602 13.5553 21.0143 12.9948 20.7227 12.5391C20.431 12.0833 20.071 11.778 19.6426 11.623C19.2142 11.4681 18.3073 11.3906 16.9219 11.3906H15.3086Z" fill="white"/>
</svg>
