<svg width="34" height="36" viewBox="0 0 34 36" fill="none" xmlns="http://www.w3.org/2000/svg">
<path d="M-2 3C-2 1.34315 -0.656854 0 1 0H31C32.6569 0 34 1.34315 34 3V33C34 34.6569 32.6569 36 31 36H0.999999C-0.656855 36 -2 34.6569 -2 33V3Z" fill="#FB4C2F"/>
<path d="M4.82173 23V13.5455H8.55185C9.26894 13.5455 9.87985 13.6824 10.3846 13.9563C10.8893 14.2272 11.274 14.6042 11.5387 15.0874C11.8065 15.5675 11.9403 16.1214 11.9403 16.7493C11.9403 17.3771 11.8049 17.9311 11.5341 18.4112C11.2633 18.8913 10.8709 19.2653 10.3569 19.533C9.846 19.8008 9.22739 19.9347 8.50107 19.9347H6.12358V18.3327H8.17791C8.56262 18.3327 8.87962 18.2666 9.12891 18.1342C9.38127 17.9988 9.56901 17.8126 9.69212 17.5756C9.8183 17.3356 9.88139 17.0601 9.88139 16.7493C9.88139 16.4354 9.8183 16.1615 9.69212 15.9276C9.56901 15.6906 9.38127 15.5075 9.12891 15.3782C8.87654 15.2459 8.55646 15.1797 8.16868 15.1797H6.82067V23H4.82173ZM16.5903 23H13.2387V13.5455H16.618C17.569 13.5455 18.3876 13.7347 19.074 14.1133C19.7603 14.4888 20.2881 15.0289 20.6574 15.7337C21.0298 16.4384 21.216 17.2817 21.216 18.2635C21.216 19.2483 21.0298 20.0947 20.6574 20.8026C20.2881 21.5104 19.7572 22.0536 19.0647 22.4322C18.3753 22.8107 17.5505 23 16.5903 23ZM15.2377 21.2873H16.5072C17.0981 21.2873 17.5951 21.1826 17.9983 20.9734C18.4046 20.761 18.7093 20.4332 18.9124 19.9901C19.1186 19.5438 19.2217 18.9683 19.2217 18.2635C19.2217 17.5649 19.1186 16.994 18.9124 16.5508C18.7093 16.1076 18.4061 15.7814 18.0029 15.5721C17.5998 15.3628 17.1027 15.2582 16.5118 15.2582H15.2377V21.2873ZM22.6967 23V13.5455H28.9567V15.1935H24.6957V17.4464H28.5412V19.0945H24.6957V23H22.6967Z" fill="white"/>
</svg>
