<svg width="64" height="64" viewBox="0 0 64 64" fill="none" xmlns="http://www.w3.org/2000/svg">
<g clip-path="url(#clip0_3022_50729)">
<path fill-rule="evenodd" clip-rule="evenodd" d="M16 5.5873V58.4127C16 61.4985 18.4624 64 21.5 64H58.5C61.5376 64 64 61.4985 64 58.4127V14.7025C64 13.21 63.4122 11.7796 62.3677 10.7301L53.2957 1.61483C52.266 0.58026 50.8762 0 49.428 0H21.5C18.4624 0 16 2.50152 16 5.5873ZM19.5 58.4127V5.5873C19.5 4.4652 20.3954 3.55556 21.5 3.55556H48.75V15.746C48.75 17.85 50.4289 19.5556 52.5 19.5556H60.5V58.4127C60.5 59.5348 59.6046 60.4444 58.5 60.4444H21.5C20.3954 60.4444 19.5 59.5348 19.5 58.4127ZM60.5 16V14.7025C60.5 14.1598 60.2863 13.6396 59.9064 13.258L52.25 5.56509V15.746C52.25 15.8863 52.3619 16 52.5 16H60.5Z" fill="#9D9C9B"/>
<path fill-rule="evenodd" clip-rule="evenodd" d="M41 26.25C41 25.2835 41.7835 24.5 42.75 24.5H54.25C55.2165 24.5 56 25.2835 56 26.25C56 27.2165 55.2165 28 54.25 28H42.75C41.7835 28 41 27.2165 41 26.25Z" fill="#F38D7C"/>
<path fill-rule="evenodd" clip-rule="evenodd" d="M41 34.25C41 33.2835 41.7835 32.5 42.75 32.5H54.25C55.2165 32.5 56 33.2835 56 34.25C56 35.2165 55.2165 36 54.25 36H42.75C41.7835 36 41 35.2165 41 34.25Z" fill="#FD6B53"/>
<path fill-rule="evenodd" clip-rule="evenodd" d="M41 42.25C41 41.2835 41.7835 40.5 42.75 40.5H54.25C55.2165 40.5 56 41.2835 56 42.25C56 43.2165 55.2165 44 54.25 44H42.75C41.7835 44 41 43.2165 41 42.25Z" fill="#FB4C2F"/>
<path d="M-2 19C-2 17.3431 -0.656854 16 1 16H31C32.6569 16 34 17.3431 34 19V49C34 50.6569 32.6569 52 31 52H0.999999C-0.656855 52 -2 50.6569 -2 49V19Z" fill="#FB4C2F"/>
<path d="M4.82173 39V29.5455H8.55185C9.26894 29.5455 9.87985 29.6824 10.3846 29.9563C10.8893 30.2272 11.274 30.6042 11.5387 31.0874C11.8065 31.5675 11.9403 32.1214 11.9403 32.7493C11.9403 33.3771 11.8049 33.9311 11.5341 34.4112C11.2633 34.8913 10.8709 35.2653 10.3569 35.533C9.846 35.8008 9.22739 35.9347 8.50107 35.9347H6.12358V34.3327H8.17791C8.56262 34.3327 8.87962 34.2666 9.12891 34.1342C9.38127 33.9988 9.56901 33.8126 9.69212 33.5756C9.8183 33.3356 9.88139 33.0601 9.88139 32.7493C9.88139 32.4354 9.8183 32.1615 9.69212 31.9276C9.56901 31.6906 9.38127 31.5075 9.12891 31.3782C8.87654 31.2459 8.55646 31.1797 8.16868 31.1797H6.82067V39H4.82173ZM16.5903 39H13.2387V29.5455H16.618C17.569 29.5455 18.3876 29.7347 19.074 30.1133C19.7603 30.4888 20.2881 31.0289 20.6574 31.7337C21.0298 32.4384 21.216 33.2817 21.216 34.2635C21.216 35.2483 21.0298 36.0947 20.6574 36.8026C20.2881 37.5104 19.7572 38.0536 19.0647 38.4322C18.3753 38.8107 17.5505 39 16.5903 39ZM15.2377 37.2873H16.5072C17.0981 37.2873 17.5951 37.1826 17.9983 36.9734C18.4046 36.761 18.7093 36.4332 18.9124 35.9901C19.1186 35.5438 19.2217 34.9683 19.2217 34.2635C19.2217 33.5649 19.1186 32.994 18.9124 32.5508C18.7093 32.1076 18.4061 31.7814 18.0029 31.5721C17.5998 31.3628 17.1027 31.2582 16.5118 31.2582H15.2377V37.2873ZM22.6967 39V29.5455H28.9567V31.1935H24.6957V33.4464H28.5412V35.0945H24.6957V39H22.6967Z" fill="white"/>
</g>
<defs>
<clipPath id="clip0_3022_50729">
<rect width="64" height="64" fill="white"/>
</clipPath>
</defs>
</svg>
